<svg xmlns="http://www.w3.org/2000/svg" viewBox="0 0 342.28 228.83"><defs><style>.cls-1,.cls-14{fill:#fae1e3;}.cls-1,.cls-3,.cls-7,.cls-8{stroke:#1d1d1b;}.cls-1,.cls-10,.cls-13,.cls-3,.cls-6,.cls-7,.cls-8{stroke-miterlimit:10;}.cls-15,.cls-2,.cls-8,.cls-9{fill:#1d1d1b;}.cls-13,.cls-3,.cls-6{fill:none;}.cls-4{fill:#e6a1ae;}.cls-5{fill:#f5cad0;}.cls-6{stroke:#fff;}.cls-7{fill:#f5cace;}.cls-9{font-size:46px;}.cls-15,.cls-9{font-family:CenturyGothic, Century Gothic;}.cls-10{fill:#fed761;}.cls-10,.cls-13{stroke:#ab412d;stroke-width:0.5px;}.cls-11{fill:#fcbe35;}.cls-12{fill:#f9e052;}.cls-15{font-size:21px;}</style></defs><g id="Layer_29" data-name="Layer 29"><path class="cls-1" d="M132,193.61A19.6,19.6,0,0,0,156.59,197a5,5,0,0,0,1.37-1.1,5.24,5.24,0,0,0,.83-1.92c.92-3.63.74-7.44.56-11.18-.13-2.69.27-7.46.14-10.15"/><path class="cls-1" d="M24.68,181a36.34,36.34,0,0,0,3.39,11.46,6,6,0,0,0,1.32,1.94,6.09,6.09,0,0,0,2,1,20,20,0,0,0,4.48,1.16c5.31.59,10.29-2.4,14.8-5.27"/><path class="cls-1" d="M29.84,184.05A78.63,78.63,0,0,0,53.2,198.62c5.75,2.31,12,4.06,16.44,8.34s6.73,11,11.57,15.11a16,16,0,0,0,12.66,3.65,14.58,14.58,0,0,0,10.62-7.65c1-2,1.48-4.12,2.34-6.14,2.37-5.53,7.32-9.55,12.53-12.55s10.86-5.23,15.92-8.49a91.74,91.74,0,0,0,8.15-6.17c5-4.06,12.25-7.56,15.95-12.81,17.67-25.14,20-60.22,5.88-87.5-4.92-9.48-11.91-18.23-21.32-23.28-13.38-7.2-29.57-6-44.6-3.8C87.22,59.13,75.11,61.52,63.69,66S41.52,77,33.47,86.27c-13.91,16-18.38,38.17-19.15,59.36a33.72,33.72,0,0,0,3,15.34c.64,1.38,1.43,2.7,2.13,4.05,1,2,1.85,4,2.69,6.07C24.31,176.43,25.56,180.19,29.84,184.05Z"/><ellipse class="cls-2" cx="27.86" cy="120.29" rx="1.95" ry="5.04"/><ellipse class="cls-2" cx="54.61" cy="136.48" rx="1.95" ry="5.04"/><path class="cls-3" d="M32.28,102.78l1-1a1.65,1.65,0,0,1,.36-.28,1.12,1.12,0,0,1,.6-.12,2.14,2.14,0,0,1,2,2"/><path class="cls-3" d="M62.86,119.35l1.28-.54a2.13,2.13,0,0,1,.43-.13,1.17,1.17,0,0,1,.61.11,2.15,2.15,0,0,1,1.1,2.63"/><path class="cls-4" d="M17.87,62.85c3.24-6.61,13.64-5,13.64-5l13,2.29s9,5.06,11.63,7.18A16.78,16.78,0,0,1,60,71.6l.16,5.65L41.87,81.81,33.23,87l-1,4.94s-6.8-8-8.85-13.45S16.23,66.18,17.87,62.85Z"/><path class="cls-5" d="M16.62,65.9c2.87-6.66,11.62-5.22,11.62-5.22l13.54,2.88s12.14,5.83,13.45,8.68a37,37,0,0,0,3.83,6.06L44.32,81.9l-6.65,3.55-7,8.27-.89.81s-7.18-7.8-8.8-13.18S15.18,69.25,16.62,65.9Z"/><path class="cls-4" d="M77.61,102.73s21.34-2.4,24.23,2.74,2.46,3.91,2.88,5.15,8.39,10.75,4.93,19.75c-3.36,8.78-5.19,8.77-5.19,8.77s19.65-19.39,16.92-28.32c-2.26-7.4.38-11.92-7.85-15.83s-14.16-4.74-18.48-3.92S77.61,102.73,77.61,102.73Z"/><path class="cls-5" d="M76.23,103.62s15.85,3.29,18.73,8.43,2.47,3.91,2.88,5.15,7.91,11.27,6.06,20.73c-1.74,8.91.25,2.17.49,1.35a.91.91,0,0,1,.07-.14c.88-1,12.6-14.92,12.92-23.89.28-7.72-1.23-14.1-9.46-18s-8.07-2.67-12.39-1.85S76.23,103.62,76.23,103.62Z"/><path class="cls-6" d="M78.52,103a66.84,66.84,0,0,1,12.6-6.1,22.47,22.47,0,0,1,13.78-.43,17.07,17.07,0,0,1,11.25,13.24c.76,4.78-.59,9.64-2.3,14.17-2.12,5.6-5.22,9.77-8.45,14.81"/><path class="cls-3" d="M104.39,139.89q6-6.9,11.58-14.2a25.6,25.6,0,0,0,3.1-4.83,21.28,21.28,0,0,0,1.49-5.15c.85-4.76,1-9.87-1.17-14.22-3.08-6.31-10.3-9.73-17.29-10.33a19.19,19.19,0,0,0-8.81,1,27.15,27.15,0,0,0-5.05,2.94l-12,8.22a24.23,24.23,0,0,1,11.6,2.44c6,2.82,10.59,8.29,13.15,14.45A46,46,0,0,1,104.39,139.89Z"/><path class="cls-6" d="M58.15,77.94C54.38,70.06,46,65.36,37.58,63.05c-6.12-1.67-12.78-3.62-18.3-.5"/><path class="cls-3" d="M38.31,85.94A24.78,24.78,0,0,1,43.24,82c3.33-1.87,7.23-2.29,10.95-3.12,2.63-.58,5.63-1.83,6.18-4.46s-1.54-4.85-3.55-6.51A64.41,64.41,0,0,0,50,63a31.84,31.84,0,0,0-4.6-2.47c-5.06-2.13-10.72-2.25-16.21-2.34a19.12,19.12,0,0,0-5.07.37A9.78,9.78,0,0,0,18,63.39a13,13,0,0,0-.67,9.52,39.06,39.06,0,0,0,4.1,8.85l3.78,6.64c.88,1.55,2.1,5.13,3.9,5.8C31.56,95.14,36.39,87.59,38.31,85.94Z"/><path class="cls-7" d="M13.65,149.09c2.63-.59,5.26.9,7.34,2.6a31.73,31.73,0,0,1,11,18.62c.49,2.62.61,5.44-.54,7.84-1.7,3.54-6,5.38-9.88,4.91s-7.36-2.9-9.84-5.95c-3-3.64-5.69-9.39-5.58-14.22S8.14,150.33,13.65,149.09Z"/><ellipse class="cls-2" cx="14.46" cy="163.81" rx="0.79" ry="2.84"/><ellipse class="cls-2" cx="20.56" cy="168.87" rx="0.79" ry="2.84"/><path class="cls-8" d="M124.77,65.11c2.09-.33,4.39-.58,6.18.56l-26.44,7.52c-1.24.35-4.36,1.89-5.57,1.34A1.72,1.72,0,0,1,98.48,72c.94-1.11,4.46-1.61,5.84-2q3.17-1,6.36-1.83A107.54,107.54,0,0,1,124.77,65.11Z"/><text class="cls-9" transform="translate(180.96 95.41) scale(1.05 1)">PIGGY</text><path class="cls-10" d="M127.41,56.3c0,7.64-6.37,17-13.46,17s-15-11.49-15-19.13,7.5-13.89,14.58-13.89S127.41,48.66,127.41,56.3Z"/><path class="cls-11" d="M127.29,56.3c0,7.64-6.37,17-13.45,17S98.9,64.83,98.9,57.19,106,64.5,113.1,64.5,127.29,48.66,127.29,56.3Z"/><path class="cls-12" d="M98.9,56.21c0,5.15,1.77,8.06,7.3,13.21,2.11,2,7.47,3.72,5.9,3.75-7.76.18-8.54-.81-9.62-1.52-7-4.6-8.11-7.8-8.11-17.44s7.9-13.89,15.63-13.89c2.89,0-4.9,2-6.65,4.26C100.32,48.4,98.9,50.18,98.9,56.21Z"/><path class="cls-13" d="M98.9,56.21c0,5.15,1.77,8.06,7.3,13.21,2.11,2,7.47,3.72,5.9,3.75-7.76.18-8.54-.81-9.62-1.52-7-4.6-8.11-7.8-8.11-17.44s7.9-13.89,15.63-13.89c2.89,0-4.9,2-6.65,4.26C100.32,48.4,98.9,50.18,98.9,56.21Z"/><path class="cls-14" d="M111.42,84.52c7.45-3.36,15.82-2.81,23.2-6.71,6.22-3.29,1.81-12.38-4.63-11-9.49,2.09-18.23,6.57-27.75,8.57l5.84,10c1-1.08,3.53-1.11,4.87-1.46,2.44-.65,4.79-1.57,7.18-2.38a128,128,0,0,1,14.38-4c7.55-1.62,4.35-13.19-3.19-11.57a166.63,166.63,0,0,0-17.95,5.2c-4.76,1.59-10.18,1.79-13.78,5.67a6.05,6.05,0,0,0,5.84,10c9.52-2,18.26-6.48,27.75-8.57l-4.62-11c-7.11,3.76-15.8,3.36-23.2,6.71-7,3.17-.93,13.51,6.06,10.36Z"/><path class="cls-2" d="M68.6,40.19a108.63,108.63,0,0,1,17.58,6.39"/><path class="cls-2" d="M75.34,15.86a99.2,99.2,0,0,1,16.91,15"/><path class="cls-2" d="M104.41,3.31a81.58,81.58,0,0,1,2.3,21.17"/><path class="cls-2" d="M117.54,32.78A164.28,164.28,0,0,1,132.72,11.9"/><path class="cls-2" d="M133.82,45.74,152,43.09"/><path class="cls-2" d="M127.06,36.29q10.55-7.82,21.56-14.95"/><path class="cls-3" d="M32.88,186.33c2.76.84,6.45-1.38,8.63-3.27a24.55,24.55,0,0,0,7.56-12.23"/><path class="cls-3" d="M46.92,167.8a8.48,8.48,0,0,0,6.17,5"/><text class="cls-15" transform="translate(185.58 123.38)">Manage<tspan x="45.26" y="25.2"> </tspan><tspan x="0" y="50.4">Budget</tspan></text></g></svg>