<svg xmlns="http://www.w3.org/2000/svg" viewBox="0 0 606.78 805.72"><defs><style>.cls-1,.cls-13{fill:#fae1e3;}.cls-1,.cls-3,.cls-7,.cls-8{stroke:#1d1d1b;}.cls-1,.cls-12,.cls-3,.cls-6,.cls-7,.cls-8,.cls-9{stroke-miterlimit:10;}.cls-2,.cls-8{fill:#1d1d1b;}.cls-12,.cls-3,.cls-6{fill:none;}.cls-4{fill:#e6a1ae;}.cls-5{fill:#f5cad0;}.cls-6{stroke:#fff;}.cls-7{fill:#f5cace;}.cls-9{fill:#fed761;}.cls-12,.cls-9{stroke:#ab412d;stroke-width:0.5px;}.cls-10{fill:#fcbe35;}.cls-11{fill:#f9e052;}</style></defs><g id="Layer_29" data-name="Layer 29"><path class="cls-1" d="M439,662.89a66.55,66.55,0,0,0,83.45,11.51,13.64,13.64,0,0,0,7.45-10.27c3.12-12.32,2.53-25.24,1.92-37.94-.44-9.14.93-25.32.48-34.46"/><path class="cls-1" d="M74.59,620A123.6,123.6,0,0,0,86.11,658.9a20,20,0,0,0,4.49,6.58,20.59,20.59,0,0,0,6.89,3.5,69.21,69.21,0,0,0,15.2,3.92c18,2,34.95-8.15,50.25-17.9"/><path class="cls-1" d="M92.12,630.44a267,267,0,0,0,79.31,49.47c19.5,7.81,40.65,13.75,55.81,28.3,15.59,15,22.83,37.27,39.29,51.28,11.71,10,27.77,14.82,43,12.41s29.15-12.22,36.05-26c3.33-6.66,5-14,7.95-20.84,8-18.78,24.84-32.42,42.53-42.62s36.88-17.77,54.05-28.83c9.73-6.27,18.72-13.61,27.69-20.93,16.88-13.78,41.59-25.67,54.12-43.5,60-85.36,68-204.42,20-297-16.7-32.19-40.41-61.88-72.36-79.06-45.43-24.41-100.41-20.47-151.42-12.89-41.15,6.11-82.26,14.24-121,29.35s-75.28,37.53-102.59,68.92C57.21,352.8,42,428.05,39.43,500a114,114,0,0,0,10.13,52.08c2.16,4.7,4.83,9.16,7.21,13.76,3.45,6.68,6.3,13.65,9.15,20.61C73.32,604.55,77.6,617.33,92.12,630.44Z"/><ellipse class="cls-2" cx="85.39" cy="413.97" rx="6.64" ry="17.11"/><ellipse class="cls-2" cx="176.2" cy="468.95" rx="6.64" ry="17.11"/><path class="cls-3" d="M100.41,354.52l3.36-3.28a5.61,5.61,0,0,1,1.2-1,4,4,0,0,1,2-.39,7.29,7.29,0,0,1,6.76,6.92"/><path class="cls-3" d="M204.23,410.77l4.33-1.81a5.35,5.35,0,0,1,1.47-.46,3.94,3.94,0,0,1,2.05.39,7.28,7.28,0,0,1,3.74,8.92"/><path class="cls-4" d="M51.46,219c11-22.45,46.33-16.9,46.33-16.9l44,7.78s30.44,17.18,39.5,24.38a57.41,57.41,0,0,1,13.1,14.44l.55,19.16-62,15.49-29.34,17.46-3.48,16.76s-23.09-27.22-30-45.65S45.92,230.26,51.46,219Z"/><path class="cls-5" d="M47.24,229.32c9.74-22.6,39.44-17.74,39.44-17.74l46,9.8s41.22,19.78,45.68,29.46,13,20.58,13,20.58l-50,12.22-22.57,12L94.89,323.75l-3,2.77S67.51,300,62,281.77,42.35,240.68,47.24,229.32Z"/><path class="cls-4" d="M254.28,354.35s72.47-8.14,82.25,9.32,8.38,13.27,9.78,17.47,28.49,36.48,16.77,67.05C351.64,478,345.46,478,345.46,478s66.69-65.85,57.43-96.14c-7.68-25.14,1.27-40.49-26.67-53.76S328.15,312,313.48,314.78,254.28,354.35,254.28,354.35Z"/><path class="cls-5" d="M249.62,357.37S303.4,368.55,313.18,386s8.38,13.27,9.78,17.46,26.88,38.27,20.59,70.4c-5.92,30.25.84,7.36,1.65,4.58a1.25,1.25,0,0,1,.26-.48c3-3.5,42.76-50.66,43.86-81.12.94-26.21-4.19-47.86-32.13-61.13s-27.39-9.08-42.06-6.29S249.62,357.37,249.62,357.37Z"/><path class="cls-6" d="M257.39,355.38c13.76-7.9,27.65-15.85,42.75-20.7s31.72-6.44,46.79-1.47a58,58,0,0,1,38.21,45c2.57,16.22-2,32.72-7.81,48.09-7.2,19-17.72,33.17-28.7,50.29"/><path class="cls-3" d="M345.19,480.51q20.51-23.42,39.32-48.22c3.94-5.18,7.84-10.45,10.55-16.37a72.89,72.89,0,0,0,5-17.49c2.91-16.17,3.23-33.52-4-48.29-10.45-21.43-34.94-33-58.7-35.08-10.09-.87-20.5-.27-29.89,3.52-6.14,2.48-11.67,6.25-17.14,10l-40.84,27.9c13.05-1,27.5,2.74,39.36,8.27,20.5,9.57,36,28.15,44.64,49.05A156,156,0,0,1,345.19,480.51Z"/><path class="cls-6" d="M188.23,270.18c-12.81-26.73-41.25-42.71-69.84-50.52C97.62,214,75,207.35,56.27,217.94"/><path class="cls-3" d="M120.87,297.37c5.14-5,10.51-9.84,16.75-13.34,11.28-6.32,24.53-7.75,37.15-10.57,8.93-2,19.12-6.2,21-15.15,1.82-8.66-5.25-16.46-12.06-22.11a219.23,219.23,0,0,0-23.13-16.73A109.51,109.51,0,0,0,145,211.09c-17.19-7.24-36.38-7.65-55-7.94-5.77-.09-11.62-.17-17.21,1.24a33.32,33.32,0,0,0-21,16.41c-5.21,9.76-5.17,21.65-2.26,32.33s8.44,20.42,13.92,30l12.84,22.54c3,5.25,7.11,17.41,13.22,19.69C97.94,328.57,114.36,303,120.87,297.37Z"/><path class="cls-7" d="M37.16,511.74c8.91-2,17.84,3.07,24.92,8.84a107.61,107.61,0,0,1,37.47,63.21c1.65,8.9,2.07,18.46-1.83,26.61-5.77,12-20.32,18.28-33.56,16.68s-25-9.85-33.4-20.2c-10.08-12.38-19.3-31.9-19-48.28C12.15,542.38,18.45,516,37.16,511.74Z"/><ellipse class="cls-2" cx="39.91" cy="561.71" rx="2.69" ry="9.63"/><ellipse class="cls-2" cx="60.62" cy="578.89" rx="2.69" ry="9.63"/><path class="cls-8" d="M414.39,226.63c7.1-1.12,14.92-1.94,21,1.9l-89.76,25.53c-4.22,1.2-14.82,6.44-18.9,4.57-3.29-1.5-3.71-6.29-1.59-8.78,3.21-3.76,15.15-5.46,19.85-6.94q10.72-3.36,21.58-6.23C382.21,232.55,398.31,228.64,414.39,226.63Z"/><path class="cls-9" d="M423.36,196.72c0,25.93-21.64,57.87-45.69,57.87s-51.1-39-51.1-64.94,25.45-47.17,49.49-47.17S423.36,170.78,423.36,196.72Z"/><path class="cls-10" d="M423,196.72c0,25.93-21.64,57.87-45.69,57.87s-50.7-28.91-50.7-54.84,24.15,24.82,48.19,24.82S423,170.78,423,196.72Z"/><path class="cls-11" d="M326.57,196.41c0,17.49,6,27.39,24.77,44.85,7.16,6.66,25.37,12.64,20.05,12.76-26.35.6-29-2.77-32.67-5.19-23.78-15.61-27.52-26.47-27.52-59.18s26.81-47.17,53-47.17c9.83,0-16.61,6.93-22.57,14.45C331.39,169.9,326.57,176,326.57,196.41Z"/><path class="cls-12" d="M326.57,196.41c0,17.49,6,27.39,24.77,44.85,7.16,6.66,25.37,12.64,20.05,12.76-26.35.6-29-2.77-32.67-5.19-23.78-15.61-27.52-26.47-27.52-59.18s26.81-47.17,53-47.17c9.83,0-16.61,6.93-22.57,14.45C331.39,169.9,326.57,176,326.57,196.41Z"/><path class="cls-13" d="M358.81,265.12c24.94-12.07,54.36-8.91,78.76-22.77,6.13-3.47,1.87-12.31-4.62-11-32.32,6.71-61.82,22.72-94.23,29.1l6.77,8.81c3.6-4.85,12.22-5.13,17.56-6.34,8.92-2,17.5-5.22,26.11-8.24a404,404,0,0,1,51.48-14.33c7.56-1.57,4.36-13.14-3.19-11.57A443.1,443.1,0,0,0,380.62,245a216.79,216.79,0,0,1-26.68,7.58c-7.57,1.62-14.09,4.26-18.81,10.62-3.41,4.61,2.2,9.72,6.78,8.82,32.41-6.38,61.91-22.39,94.23-29.1l-4.62-11c-24.15,13.71-53.83,10.7-78.76,22.77-6.95,3.36-.87,13.71,6.05,10.36Z"/><path class="cls-2" d="M223.71,142a371.21,371.21,0,0,1,59.69,21.69"/><path class="cls-2" d="M246.57,59.44A336.38,336.38,0,0,1,304,110.33"/><path class="cls-2" d="M345.27,16.84a276.52,276.52,0,0,1,7.81,71.86"/><path class="cls-2" d="M389.86,116.87A558.45,558.45,0,0,1,441.38,46"/><path class="cls-2" d="M445.11,160.87l61.73-9"/><path class="cls-2" d="M422.16,128.8Q458,102.28,495.36,78"/><path class="cls-3" d="M102.45,638.16c9.34,2.87,21.9-4.68,29.27-11.1a83.11,83.11,0,0,0,25.68-41.51"/><path class="cls-3" d="M150.11,575.28A28.77,28.77,0,0,0,171,592.39"/></g></svg>