<svg xmlns="http://www.w3.org/2000/svg" viewBox="0 0 1322.64 810.59"><defs><style>.cls-1,.cls-14{fill:#fae1e3;}.cls-1,.cls-3,.cls-7,.cls-8{stroke:#1d1d1b;}.cls-1,.cls-10,.cls-13,.cls-3,.cls-6,.cls-7,.cls-8{stroke-miterlimit:10;}.cls-15,.cls-2,.cls-8,.cls-9{fill:#1d1d1b;}.cls-13,.cls-3,.cls-6{fill:none;}.cls-4{fill:#e6a1ae;}.cls-5{fill:#f5cad0;}.cls-6{stroke:#fff;}.cls-7{fill:#f5cace;}.cls-9{font-size:156.17px;}.cls-15,.cls-9{font-family:CenturyGothic, Century Gothic;}.cls-10{fill:#fed761;}.cls-10,.cls-13{stroke:#ab412d;stroke-width:0.5px;}.cls-11{fill:#fcbe35;}.cls-12{fill:#f9e052;}.cls-15{font-size:86px;}</style></defs><g id="Layer_29" data-name="Layer 29"><path class="cls-1" d="M520.89,673.51A66.55,66.55,0,0,0,604.34,685a13.64,13.64,0,0,0,7.45-10.27c3.12-12.32,2.53-25.24,1.91-37.94-.44-9.14.93-25.32.49-34.46"/><path class="cls-1" d="M156.49,630.61A123.88,123.88,0,0,0,168,669.52a19.85,19.85,0,0,0,4.49,6.58,20.64,20.64,0,0,0,6.88,3.5,69.29,69.29,0,0,0,15.21,3.92c18,2,34.94-8.15,50.25-17.91"/><path class="cls-1" d="M174,641.06a267.12,267.12,0,0,0,79.31,49.47c19.5,7.81,40.65,13.75,55.81,28.3,15.59,15,22.83,37.27,39.28,51.28,11.71,10,27.78,14.82,43,12.41s29.15-12.23,36-26c3.34-6.65,5-14,8-20.83,8-18.78,24.83-32.42,42.53-42.62s36.88-17.77,54.05-28.83c9.73-6.27,18.72-13.61,27.69-20.93,16.88-13.78,41.59-25.67,54.12-43.5,60-85.36,68-204.42,20-297-16.7-32.19-40.42-61.88-72.36-79.06C516,199.32,461,203.25,410,210.83c-41.15,6.12-82.26,14.25-121,29.36s-75.28,37.53-102.59,68.92c-47.24,54.31-62.42,129.56-65,201.5a114.18,114.18,0,0,0,10.12,52.08c2.17,4.7,4.83,9.16,7.21,13.76,3.46,6.68,6.31,13.65,9.15,20.61C155.23,615.17,159.5,628,174,641.06Z"/><ellipse class="cls-2" cx="167.3" cy="424.58" rx="6.64" ry="17.11"/><ellipse class="cls-2" cx="258.11" cy="479.57" rx="6.64" ry="17.11"/><path class="cls-3" d="M182.32,365.13l3.36-3.27a5.81,5.81,0,0,1,1.19-1,4,4,0,0,1,2.06-.39,7.28,7.28,0,0,1,6.75,6.92"/><path class="cls-3" d="M286.14,421.39l4.33-1.81a5.39,5.39,0,0,1,1.46-.46,4,4,0,0,1,2.06.39,7.28,7.28,0,0,1,3.74,8.92"/><path class="cls-4" d="M133.37,229.59c11-22.44,46.33-16.89,46.33-16.89l44,7.77s30.44,17.19,39.5,24.38a57.54,57.54,0,0,1,13.1,14.45l.55,19.16-62,15.49-29.34,17.46-3.48,16.76S159,301,152,282.52,127.83,240.88,133.37,229.59Z"/><path class="cls-5" d="M129.15,239.93c9.74-22.59,39.44-17.73,39.44-17.73l46,9.8s41.22,19.77,45.68,29.46,13,20.57,13,20.57l-50,12.23-22.57,12L176.8,334.37l-3,2.77s-24.35-26.5-29.87-44.76S124.25,251.3,129.15,239.93Z"/><path class="cls-4" d="M336.19,365s72.47-8.14,82.25,9.32,8.38,13.27,9.78,17.46S456.7,428.24,445,458.81c-11.43,29.82-17.61,29.78-17.61,29.78s66.68-65.85,57.43-96.14c-7.69-25.14,1.27-40.49-26.67-53.76s-48.07-16.09-62.74-13.29S336.19,365,336.19,365Z"/><path class="cls-5" d="M331.53,368s53.78,11.18,63.56,28.64,8.38,13.27,9.78,17.46,26.88,38.27,20.59,70.4c-5.92,30.25.84,7.36,1.65,4.58a1.18,1.18,0,0,1,.26-.48c3-3.5,42.76-50.66,43.86-81.12.94-26.21-4.2-47.86-32.14-61.13s-27.38-9.08-42-6.29S331.53,368,331.53,368Z"/><path class="cls-6" d="M339.29,366c13.77-7.89,27.65-15.84,42.76-20.7s31.72-6.43,46.78-1.46a57.94,57.94,0,0,1,38.22,45c2.57,16.22-2,32.72-7.81,48.09-7.2,19-17.72,33.17-28.7,50.29"/><path class="cls-3" d="M427.1,491.13q20.5-23.42,39.32-48.22c3.94-5.18,7.84-10.45,10.55-16.37a73,73,0,0,0,5-17.49c2.91-16.17,3.23-33.52-4-48.29-10.45-21.43-34.95-33-58.7-35.08-10.09-.87-20.5-.27-29.89,3.52-6.15,2.48-11.67,6.25-17.14,10l-40.84,27.9c13.05-1,27.5,2.74,39.36,8.27,20.5,9.57,36,28.15,44.63,49.05A156.18,156.18,0,0,1,427.1,491.13Z"/><path class="cls-6" d="M270.14,280.8c-12.81-26.73-41.25-42.71-69.85-50.52-20.76-5.68-43.37-12.32-62.11-1.72"/><path class="cls-3" d="M202.78,308c5.14-5,10.5-9.84,16.75-13.34,11.28-6.32,24.53-7.75,37.15-10.57,8.93-2,19.12-6.21,21-15.16,1.82-8.65-5.26-16.45-12.06-22.1a218.33,218.33,0,0,0-23.14-16.73,108.92,108.92,0,0,0-15.6-8.39c-17.19-7.24-36.38-7.64-55-7.93-5.77-.09-11.62-.18-17.21,1.24a33.34,33.34,0,0,0-21,16.4c-5.21,9.77-5.17,21.66-2.27,32.34s8.44,20.42,13.92,30l12.85,22.54c3,5.24,7.1,17.41,13.22,19.69C179.85,339.19,196.27,313.57,202.78,308Z"/><path class="cls-7" d="M119.06,522.36c8.92-2,17.85,3.07,24.93,8.84a107.59,107.59,0,0,1,37.47,63.21c1.64,8.89,2.07,18.46-1.84,26.61-5.76,12-20.31,18.27-33.55,16.68s-25-9.86-33.4-20.2c-10.09-12.38-19.3-31.9-19-48.28S100.36,526.57,119.06,522.36Z"/><ellipse class="cls-2" cx="121.82" cy="572.32" rx="2.69" ry="9.63"/><ellipse class="cls-2" cx="142.53" cy="589.51" rx="2.69" ry="9.63"/><path class="cls-8" d="M496.29,237.25c7.11-1.12,14.92-1.95,21,1.9l-89.77,25.53c-4.21,1.2-14.81,6.43-18.9,4.57-3.28-1.5-3.71-6.29-1.58-8.78,3.21-3.76,15.14-5.46,19.85-6.94q10.71-3.37,21.58-6.24C464.12,243.17,480.21,239.26,496.29,237.25Z"/><text class="cls-9" transform="translate(687.08 340.12) scale(1.05 1)">PIGGY</text><path class="cls-10" d="M505.27,207.34c0,25.93-21.64,57.87-45.69,57.87s-51.1-39-51.1-64.94S433.92,153.1,458,153.1,505.27,181.4,505.27,207.34Z"/><path class="cls-11" d="M504.87,207.34c0,25.93-21.64,57.87-45.69,57.87s-50.7-28.91-50.7-54.84,24.15,24.82,48.19,24.82S504.87,181.4,504.87,207.34Z"/><path class="cls-12" d="M408.48,207c0,17.49,6,27.39,24.76,44.84,7.17,6.67,25.37,12.64,20.06,12.77-26.36.6-29-2.77-32.68-5.19-23.78-15.61-27.51-26.47-27.51-59.18s26.81-47.17,53-47.17c9.84,0-16.6,6.93-22.56,14.45C413.3,180.52,408.48,186.59,408.48,207Z"/><path class="cls-13" d="M408.48,207c0,17.49,6,27.39,24.76,44.84,7.17,6.67,25.37,12.64,20.06,12.77-26.36.6-29-2.77-32.68-5.19-23.78-15.61-27.51-26.47-27.51-59.18s26.81-47.17,53-47.17c9.84,0-16.6,6.93-22.56,14.45C413.3,180.52,408.48,186.59,408.48,207Z"/><path class="cls-14" d="M440.72,275.74c24.93-12.07,54.35-8.91,78.76-22.77,6.12-3.47,1.87-12.31-4.62-11-32.32,6.72-61.82,22.73-94.23,29.1l6.77,8.82c3.6-4.85,12.22-5.13,17.56-6.34,8.92-2,17.49-5.22,26.1-8.24A404.63,404.63,0,0,1,522.55,251c7.55-1.57,4.36-13.14-3.19-11.57a440,440,0,0,0-56.84,16.22,216.64,216.64,0,0,1-26.67,7.58c-7.57,1.62-14.09,4.25-18.81,10.62-3.41,4.6,2.2,9.72,6.78,8.82,32.41-6.38,61.91-22.39,94.23-29.1l-4.62-11c-24.15,13.71-53.84,10.7-78.77,22.77-6.94,3.36-.87,13.71,6.06,10.36Z"/><path class="cls-2" d="M305.62,152.66a370.25,370.25,0,0,1,59.69,21.69"/><path class="cls-2" d="M328.48,70.06A336.76,336.76,0,0,1,385.89,121"/><path class="cls-2" d="M427.17,27.46A276.09,276.09,0,0,1,435,99.32"/><path class="cls-2" d="M471.77,127.49a558.28,558.28,0,0,1,51.52-70.87"/><path class="cls-2" d="M527,171.48l61.74-9"/><path class="cls-2" d="M504.07,139.42q35.81-26.52,73.2-50.77"/><path class="cls-3" d="M184.35,648.78c9.35,2.87,21.91-4.68,29.28-11.1a83.18,83.18,0,0,0,25.68-41.51"/><path class="cls-3" d="M232,585.9A28.77,28.77,0,0,0,253,603"/><text class="cls-15" transform="translate(695.11 441.7) scale(1.05 1)">Manage<tspan x="0" y="103.2">Your</tspan><tspan x="0" y="206.4">Budget</tspan></text></g></svg>