<svg xmlns="http://www.w3.org/2000/svg" style="display: none">

    <symbol id="add_log_ic" viewBox="0 0 24 24">
        <path d="M14 2H6c-1.1 0-1.99.9-1.99 2L4 20c0 1.1.89 2 1.99 2H18c1.1 0 2-.9 2-2V8l-6-6zm2 14h-3v3h-2v-3H8v-2h3v-3h2v3h3v2zm-3-7V3.5L18.5 9H13z"/>
    </symbol>

    <symbol id="edit_ic" viewBox="0 0 16 16">
        <path d="M15.502 1.94a.5.5 0 0 1 0 .706L14.459 3.69l-2-2L13.502.646a.5.5 0 0 1 .707 0l1.293 1.293zm-1.75 2.456l-2-2L4.939 9.21a.5.5 0 0 0-.121.196l-.805 2.414a.25.25 0 0 0 .316.316l2.414-.805a.5.5 0 0 0 .196-.12l6.813-6.814z"/>
        <path fill-rule="evenodd"
              d="M1 13.5A1.5 1.5 0 0 0 2.5 15h11a1.5 1.5 0 0 0 1.5-1.5v-6a.5.5 0 0 0-1 0v6a.5.5 0 0 1-.5.5h-11a.5.5 0 0 1-.5-.5v-11a.5.5 0 0 1 .5-.5H9a.5.5 0 0 0 0-1H2.5A1.5 1.5 0 0 0 1 2.5v11z"/>
    </symbol>

    <symbol id="info_ic" viewBox="0 0 16 16">
        <path d="M8.93 6.588l-2.29.287-.082.38.45.083c.294.07.352.176.288.469l-.738 3.468c-.194.897.105 1.319.808 1.319.545 0 1.178-.252 1.465-.598l.088-.416c-.2.176-.492.246-.686.246-.275 0-.375-.193-.304-.533L8.93 6.588z"/>
        <circle cx="8" cy="4.5" r="1"/>
    </symbol>

    <symbol id="more_ic" viewBox="0 0 16 16">
        <path fill-rule="evenodd"
              d="M3 9.5a1.5 1.5 0 1 1 0-3 1.5 1.5 0 0 1 0 3zm5 0a1.5 1.5 0 1 1 0-3 1.5 1.5 0 0 1 0 3zm5 0a1.5 1.5 0 1 1 0-3 1.5 1.5 0 0 1 0 3z"/>
    </symbol>

    <symbol id="export-sheet_ic" viewBox="0 0 16 16">
        <path fill-rule="evenodd" d="M5 9H3V8h10v1h-3v2h3v1h-3v2H9v-2H6v2H5v-2H3v-1h2V9zm1 0v2h3V9H6z"/>
        <path d="M4 1h5v1H4a1 1 0 0 0-1 1v10a1 1 0 0 0 1 1h8a1 1 0 0 0 1-1V6h1v7a2 2 0 0 1-2 2H4a2 2 0 0 1-2-2V3a2 2 0 0 1 2-2z"/>
        <path d="M9 4.5V1l5 5h-3.5A1.5 1.5 0 0 1 9 4.5z"/>
    </symbol>

    <symbol id="del_ic" viewBox="0 0 16 16">
        <path fill-rule="evenodd" d="M2.5 1a1 1 0 0 0-1 1v1a1 1 0 0 0 1 1H3v9a2 2 0 0 0 2 2h6a2 2 0 0 0 2-2V4h.5a1 1 0 0 0 1-1V2a1 1 0 0 0-1-1H10a1 1 0 0 0-1-1H7a1 1 0 0 0-1 1H2.5zm3 4a.5.5 0 0 1 .5.5v7a.5.5 0 0 1-1 0v-7a.5.5 0 0 1 .5-.5zM8 5a.5.5 0 0 1 .5.5v7a.5.5 0 0 1-1 0v-7A.5.5 0 0 1 8 5zm3 .5a.5.5 0 0 0-1 0v7a.5.5 0 0 0 1 0v-7z"/>
    </symbol>

    <symbol id='move_ic' viewBox="0 0 16 16">
        <path fill-rule="evenodd" d="M6.5 8a.5.5 0 0 0-.5-.5H1.5a.5.5 0 0 0 0 1H6a.5.5 0 0 0 .5-.5z"/>
        <path fill-rule="evenodd" d="M3.854 5.646a.5.5 0 0 0-.708 0l-2 2a.5.5 0 0 0 0 .708l2 2a.5.5 0 0 0 .708-.708L2.207 8l1.647-1.646a.5.5 0 0 0 0-.708zM9.5 8a.5.5 0 0 1 .5-.5h4.5a.5.5 0 0 1 0 1H10a.5.5 0 0 1-.5-.5z"/>
        <path fill-rule="evenodd" d="M12.146 5.646a.5.5 0 0 1 .708 0l2 2a.5.5 0 0 1 0 .708l-2 2a.5.5 0 0 1-.708-.708L13.793 8l-1.647-1.646a.5.5 0 0 1 0-.708zM8 9.5a.5.5 0 0 0-.5.5v4.5a.5.5 0 0 0 1 0V10a.5.5 0 0 0-.5-.5z"/>
        <path fill-rule="evenodd" d="M5.646 12.146a.5.5 0 0 0 0 .708l2 2a.5.5 0 0 0 .708 0l2-2a.5.5 0 0 0-.708-.708L8 13.793l-1.646-1.647a.5.5 0 0 0-.708 0zM8 6.5a.5.5 0 0 1-.5-.5V1.5a.5.5 0 0 1 1 0V6a.5.5 0 0 1-.5.5z"/>
        <path fill-rule="evenodd" d="M5.646 3.854a.5.5 0 0 1 0-.708l2-2a.5.5 0 0 1 .708 0l2 2a.5.5 0 0 1-.708.708L8 2.207 6.354 3.854a.5.5 0 0 1-.708 0z"/>
    </symbol>
</svg>