<svg xmlns="http://www.w3.org/2000/svg" style="display: none">

    <symbol id="add_log_ic" viewBox="0 0 24 24">
        <path d="M14 2H6c-1.1 0-1.99.9-1.99 2L4 20c0 1.1.89 2 1.99 2H18c1.1 0 2-.9 2-2V8l-6-6zm2 14h-3v3h-2v-3H8v-2h3v-3h2v3h3v2zm-3-7V3.5L18.5 9H13z"/>
    </symbol>

    <symbol id="edit_ic" viewBox="0 0 16 16">
        <path d="M15.502 1.94a.5.5 0 0 1 0 .706L14.459 3.69l-2-2L13.502.646a.5.5 0 0 1 .707 0l1.293 1.293zm-1.75 2.456l-2-2L4.939 9.21a.5.5 0 0 0-.121.196l-.805 2.414a.25.25 0 0 0 .316.316l2.414-.805a.5.5 0 0 0 .196-.12l6.813-6.814z"/>
        <path fill-rule="evenodd"
              d="M1 13.5A1.5 1.5 0 0 0 2.5 15h11a1.5 1.5 0 0 0 1.5-1.5v-6a.5.5 0 0 0-1 0v6a.5.5 0 0 1-.5.5h-11a.5.5 0 0 1-.5-.5v-11a.5.5 0 0 1 .5-.5H9a.5.5 0 0 0 0-1H2.5A1.5 1.5 0 0 0 1 2.5v11z"/>
    </symbol>

    <symbol id="info_ic" viewBox="0 0 16 16">
        <path d="M8.93 6.588l-2.29.287-.082.38.45.083c.294.07.352.176.288.469l-.738 3.468c-.194.897.105 1.319.808 1.319.545 0 1.178-.252 1.465-.598l.088-.416c-.2.176-.492.246-.686.246-.275 0-.375-.193-.304-.533L8.93 6.588z"/>
        <circle cx="8" cy="4.5" r="1"/>
    </symbol>

    <symbol id="more_ic" viewBox="0 0 16 16">
        <path fill-rule="evenodd"
              d="M3 9.5a1.5 1.5 0 1 1 0-3 1.5 1.5 0 0 1 0 3zm5 0a1.5 1.5 0 1 1 0-3 1.5 1.5 0 0 1 0 3zm5 0a1.5 1.5 0 1 1 0-3 1.5 1.5 0 0 1 0 3z"/>
    </symbol>

    <symbol id="export-sheet_ic" viewBox="0 0 16 16">
        <path fill-rule="evenodd" d="M5 9H3V8h10v1h-3v2h3v1h-3v2H9v-2H6v2H5v-2H3v-1h2V9zm1 0v2h3V9H6z"/>
        <path d="M4 1h5v1H4a1 1 0 0 0-1 1v10a1 1 0 0 0 1 1h8a1 1 0 0 0 1-1V6h1v7a2 2 0 0 1-2 2H4a2 2 0 0 1-2-2V3a2 2 0 0 1 2-2z"/>
        <path d="M9 4.5V1l5 5h-3.5A1.5 1.5 0 0 1 9 4.5z"/>
    </symbol>

    <symbol id="del_ic" viewBox="0 0 16 16">
        <path fill-rule="evenodd"
              d="M2.5 1a1 1 0 0 0-1 1v1a1 1 0 0 0 1 1H3v9a2 2 0 0 0 2 2h6a2 2 0 0 0 2-2V4h.5a1 1 0 0 0 1-1V2a1 1 0 0 0-1-1H10a1 1 0 0 0-1-1H7a1 1 0 0 0-1 1H2.5zm3 4a.5.5 0 0 1 .5.5v7a.5.5 0 0 1-1 0v-7a.5.5 0 0 1 .5-.5zM8 5a.5.5 0 0 1 .5.5v7a.5.5 0 0 1-1 0v-7A.5.5 0 0 1 8 5zm3 .5a.5.5 0 0 0-1 0v7a.5.5 0 0 0 1 0v-7z"/>
    </symbol>

    <symbol id='move_ic' viewBox="0 0 16 16">
        <path fill-rule="evenodd" d="M6.5 8a.5.5 0 0 0-.5-.5H1.5a.5.5 0 0 0 0 1H6a.5.5 0 0 0 .5-.5z"/>
        <path fill-rule="evenodd"
              d="M3.854 5.646a.5.5 0 0 0-.708 0l-2 2a.5.5 0 0 0 0 .708l2 2a.5.5 0 0 0 .708-.708L2.207 8l1.647-1.646a.5.5 0 0 0 0-.708zM9.5 8a.5.5 0 0 1 .5-.5h4.5a.5.5 0 0 1 0 1H10a.5.5 0 0 1-.5-.5z"/>
        <path fill-rule="evenodd"
              d="M12.146 5.646a.5.5 0 0 1 .708 0l2 2a.5.5 0 0 1 0 .708l-2 2a.5.5 0 0 1-.708-.708L13.793 8l-1.647-1.646a.5.5 0 0 1 0-.708zM8 9.5a.5.5 0 0 0-.5.5v4.5a.5.5 0 0 0 1 0V10a.5.5 0 0 0-.5-.5z"/>
        <path fill-rule="evenodd"
              d="M5.646 12.146a.5.5 0 0 0 0 .708l2 2a.5.5 0 0 0 .708 0l2-2a.5.5 0 0 0-.708-.708L8 13.793l-1.646-1.647a.5.5 0 0 0-.708 0zM8 6.5a.5.5 0 0 1-.5-.5V1.5a.5.5 0 0 1 1 0V6a.5.5 0 0 1-.5.5z"/>
        <path fill-rule="evenodd"
              d="M5.646 3.854a.5.5 0 0 1 0-.708l2-2a.5.5 0 0 1 .708 0l2 2a.5.5 0 0 1-.708.708L8 2.207 6.354 3.854a.5.5 0 0 1-.708 0z"/>
    </symbol>

    <symbol id="expand_ic" viewBox="0 0 16 16">
        <path fill-rule="evenodd"
              d="M1 8a.5.5 0 0 1 .5-.5h13a.5.5 0 0 1 0 1h-13A.5.5 0 0 1 1 8zM7.646.146a.5.5 0 0 1 .708 0l2 2a.5.5 0 0 1-.708.708L8.5 1.707V5.5a.5.5 0 0 1-1 0V1.707L6.354 2.854a.5.5 0 1 1-.708-.708l2-2zM8 10a.5.5 0 0 1 .5.5v3.793l1.146-1.147a.5.5 0 0 1 .708.708l-2 2a.5.5 0 0 1-.708 0l-2-2a.5.5 0 0 1 .708-.708L7.5 14.293V10.5A.5.5 0 0 1 8 10z"/>
    </symbol>

    <symbol id="collapse_ic" viewBox="0 0 16 16">
        <path fill-rule="evenodd"
              d="M1 8a.5.5 0 0 1 .5-.5h13a.5.5 0 0 1 0 1h-13A.5.5 0 0 1 1 8zm7-8a.5.5 0 0 1 .5.5v3.793l1.146-1.147a.5.5 0 0 1 .708.708l-2 2a.5.5 0 0 1-.708 0l-2-2a.5.5 0 1 1 .708-.708L7.5 4.293V.5A.5.5 0 0 1 8 0zm-.5 11.707l-1.146 1.147a.5.5 0 0 1-.708-.708l2-2a.5.5 0 0 1 .708 0l2 2a.5.5 0 0 1-.708.708L8.5 11.707V15.5a.5.5 0 0 1-1 0v-3.793z"/>
    </symbol>

    <symbol id="filter_ic" viewBox="0 0 16 16">
        <path fill-rule="evenodd"
              d="M1.5 1.5A.5.5 0 0 1 2 1h12a.5.5 0 0 1 .5.5v2a.5.5 0 0 1-.128.334L10 8.692V13.5a.5.5 0 0 1-.342.474l-3 1A.5.5 0 0 1 6 14.5V8.692L1.628 3.834A.5.5 0 0 1 1.5 3.5v-2z"/>
    </symbol>


    <symbol id='x_ic' viewBox="0 0 16 16">
        <path fill-rule="evenodd"
              d="M4.646 4.646a.5.5 0 0 1 .708 0L8 7.293l2.646-2.647a.5.5 0 0 1 .708.708L8.707 8l2.647 2.646a.5.5 0 0 1-.708.708L8 8.707l-2.646 2.647a.5.5 0 0 1-.708-.708L7.293 8 4.646 5.354a.5.5 0 0 1 0-.708z"/>
    </symbol>

    <symbol id="sort_asc" viewBox="0 0 16 16">
        <path fill-rule="evenodd" d="M3 13a.5.5 0 0 0 .5-.5v-10a.5.5 0 0 0-1 0v10a.5.5 0 0 0 .5.5z"/>
        <path fill-rule="evenodd"
              d="M5.354 4.854a.5.5 0 0 0 0-.708l-2-2a.5.5 0 0 0-.708 0l-2 2a.5.5 0 1 0 .708.708L3 3.207l1.646 1.647a.5.5 0 0 0 .708 0zM7 9.5a.5.5 0 0 1 .5-.5h3a.5.5 0 0 1 0 1h-3a.5.5 0 0 1-.5-.5zm0-3a.5.5 0 0 1 .5-.5h5a.5.5 0 0 1 0 1h-5a.5.5 0 0 1-.5-.5zm0-3a.5.5 0 0 1 .5-.5h7a.5.5 0 0 1 0 1h-7a.5.5 0 0 1-.5-.5zm0 9a.5.5 0 0 1 .5-.5h1a.5.5 0 0 1 0 1h-1a.5.5 0 0 1-.5-.5z"/>
    </symbol>

    <symbol id="sort_desc" viewBox="0 0 16 16">
        <path fill-rule="evenodd" d="M3 3a.5.5 0 0 1 .5.5v10a.5.5 0 0 1-1 0v-10A.5.5 0 0 1 3 3z"/>
        <path fill-rule="evenodd"
              d="M5.354 11.146a.5.5 0 0 1 0 .708l-2 2a.5.5 0 0 1-.708 0l-2-2a.5.5 0 0 1 .708-.708L3 12.793l1.646-1.647a.5.5 0 0 1 .708 0zM7 6.5a.5.5 0 0 0 .5.5h3a.5.5 0 0 0 0-1h-3a.5.5 0 0 0-.5.5zm0 3a.5.5 0 0 0 .5.5h5a.5.5 0 0 0 0-1h-5a.5.5 0 0 0-.5.5zm0 3a.5.5 0 0 0 .5.5h7a.5.5 0 0 0 0-1h-7a.5.5 0 0 0-.5.5zm0-9a.5.5 0 0 0 .5.5h1a.5.5 0 0 0 0-1h-1a.5.5 0 0 0-.5.5z"/>
    </symbol>


    <symbol id="sort" viewBox="0 0 16 16">
        <path fill-rule="evenodd"
              d="M2 10.5a.5.5 0 0 1 .5-.5h3a.5.5 0 0 1 0 1h-3a.5.5 0 0 1-.5-.5zm0-3a.5.5 0 0 1 .5-.5h7a.5.5 0 0 1 0 1h-7a.5.5 0 0 1-.5-.5zm0-3a.5.5 0 0 1 .5-.5h11a.5.5 0 0 1 0 1h-11a.5.5 0 0 1-.5-.5z"/>
    </symbol>

    <symbol id="search_ic" viewBox="0 0 16 16">
        <path fill-rule="evenodd"
              d="M10.442 10.442a1 1 0 0 1 1.415 0l3.85 3.85a1 1 0 0 1-1.414 1.415l-3.85-3.85a1 1 0 0 1 0-1.415z"/>
        <path fill-rule="evenodd"
              d="M6.5 12a5.5 5.5 0 1 0 0-11 5.5 5.5 0 0 0 0 11zM13 6.5a6.5 6.5 0 1 1-13 0 6.5 6.5 0 0 1 13 0z"/>
    </symbol>

    <symbol id="refresh_ic" viewBox="0 0 16 16">
        <path d="M11.534 7h3.932a.25.25 0 0 1 .192.41l-1.966 2.36a.25.25 0 0 1-.384 0l-1.966-2.36a.25.25 0 0 1 .192-.41zm-11 2h3.932a.25.25 0 0 0 .192-.41L2.692 6.23a.25.25 0 0 0-.384 0L.342 8.59A.25.25 0 0 0 .534 9z"/>
        <path fill-rule="evenodd"
              d="M8 3c-1.552 0-2.94.707-3.857 1.818a.5.5 0 1 1-.771-.636A6.002 6.002 0 0 1 13.917 7H12.9A5.002 5.002 0 0 0 8 3zM3.1 9a5.002 5.002 0 0 0 8.757 2.182.5.5 0 1 1 .771.636A6.002 6.002 0 0 1 2.083 9H3.1z"/>
    </symbol>


    <symbol id="expanded-row_ic" viewBox="0 0 16 16">
        <path fill-rule="evenodd"
              d="M1.5 1.5A.5.5 0 0 0 1 2v4.8a2.5 2.5 0 0 0 2.5 2.5h9.793l-3.347 3.346a.5.5 0 0 0 .708.708l4.2-4.2a.5.5 0 0 0 0-.708l-4-4a.5.5 0 0 0-.708.708L13.293 8.3H3.5A1.5 1.5 0 0 1 2 6.8V2a.5.5 0 0 0-.5-.5z"/>
    </symbol>

    <symbol id="analyze_ic" viewBox="0 0 16 16">
        <path fill-rule="evenodd"
              d="M0 0h1v15h15v1H0V0zm10 3.5a.5.5 0 0 1 .5-.5h4a.5.5 0 0 1 .5.5v4a.5.5 0 0 1-1 0V4.9l-3.613 4.417a.5.5 0 0 1-.74.037L7.06 6.767l-3.656 5.027a.5.5 0 0 1-.808-.588l4-5.5a.5.5 0 0 1 .758-.06l2.609 2.61L13.445 4H10.5a.5.5 0 0 1-.5-.5z"/>
    </symbol>

    <symbol id="table_ic" viewBox="0 0 16 16">
        <path fill-rule="evenodd"
              d="M0 2a2 2 0 0 1 2-2h12a2 2 0 0 1 2 2v12a2 2 0 0 1-2 2H2a2 2 0 0 1-2-2V2zm15 2h-4v3h4V4zm0 4h-4v3h4V8zm0 4h-4v3h3a1 1 0 0 0 1-1v-2zm-5 3v-3H6v3h4zm-5 0v-3H1v2a1 1 0 0 0 1 1h3zm-4-4h4V8H1v3zm0-4h4V4H1v3zm5-3v3h4V4H6zm4 4H6v3h4V8z"/>
    </symbol>

    <symbol id="wallet" viewBox="0 0 16 16">
        <path fill-rule="evenodd"
              d="M12.136.326A1.5 1.5 0 0 1 14 1.78V3h.5A1.5 1.5 0 0 1 16 4.5v9a1.5 1.5 0 0 1-1.5 1.5h-13A1.5 1.5 0 0 1 0 13.5v-9a1.5 1.5 0 0 1 1.432-1.499L12.136.326zM5.562 3H13V1.78a.5.5 0 0 0-.621-.484L5.562 3zM1.5 4a.5.5 0 0 0-.5.5v9a.5.5 0 0 0 .5.5h13a.5.5 0 0 0 .5-.5v-9a.5.5 0 0 0-.5-.5h-13z"/>
    </symbol>

    <symbol id="calendar" viewBox="0 0 16 16">
        <path d="M3.5 0a.5.5 0 0 1 .5.5V1h8V.5a.5.5 0 0 1 1 0V1h1a2 2 0 0 1 2 2v11a2 2 0 0 1-2 2H2a2 2 0 0 1-2-2V5h16V4H0V3a2 2 0 0 1 2-2h1V.5a.5.5 0 0 1 .5-.5z"/>
    </symbol>

    <symbol id="checkbox" viewBox="0 0 16 16">
        <path fill-rule="evenodd"
              d="M15.354 2.646a.5.5 0 0 1 0 .708l-7 7a.5.5 0 0 1-.708 0l-3-3a.5.5 0 1 1 .708-.708L8 9.293l6.646-6.647a.5.5 0 0 1 .708 0z"/>
        <path fill-rule="evenodd"
              d="M1.5 13A1.5 1.5 0 0 0 3 14.5h10a1.5 1.5 0 0 0 1.5-1.5V8a.5.5 0 0 0-1 0v5a.5.5 0 0 1-.5.5H3a.5.5 0 0 1-.5-.5V3a.5.5 0 0 1 .5-.5h8a.5.5 0 0 0 0-1H3A1.5 1.5 0 0 0 1.5 3v10z"/>
    </symbol>

    <symbol id="binoculars" viewBox="0 0 16 16" class="bi bi-binoculars-fill" fill="currentColor"
            xmlns="http://www.w3.org/2000/svg">
        <path d="M4.5 1A1.5 1.5 0 0 0 3 2.5V3h4v-.5A1.5 1.5 0 0 0 5.5 1h-1zM7 4v1h2V4h4v.882a.5.5 0 0 0 .276.447l.895.447A1.5 1.5 0 0 1 15 7.118V13H9v-1.5a.5.5 0 0 1 .146-.354l.854-.853V9.5a.5.5 0 0 0-.5-.5h-3a.5.5 0 0 0-.5.5v.793l.854.853A.5.5 0 0 1 7 11.5V13H1V7.118a1.5 1.5 0 0 1 .83-1.342l.894-.447A.5.5 0 0 0 3 4.882V4h4zM1 14v.5A1.5 1.5 0 0 0 2.5 16h3A1.5 1.5 0 0 0 7 14.5V14H1zm8 0v.5a1.5 1.5 0 0 0 1.5 1.5h3a1.5 1.5 0 0 0 1.5-1.5V14H9zm4-11H9v-.5A1.5 1.5 0 0 1 10.5 1h1A1.5 1.5 0 0 1 13 2.5V3z"/>
    </symbol>

    <symbol id="bullseye" viewBox="0 0 16 16">
        <path fill-rule="evenodd" d="M8 15A7 7 0 1 0 8 1a7 7 0 0 0 0 14zm0 1A8 8 0 1 0 8 0a8 8 0 0 0 0 16z"/>
        <path fill-rule="evenodd" d="M8 13A5 5 0 1 0 8 3a5 5 0 0 0 0 10zm0 1A6 6 0 1 0 8 2a6 6 0 0 0 0 12z"/>
        <path fill-rule="evenodd" d="M8 11a3 3 0 1 0 0-6 3 3 0 0 0 0 6zm0 1a4 4 0 1 0 0-8 4 4 0 0 0 0 8z"/>
        <path d="M9.5 8a1.5 1.5 0 1 1-3 0 1.5 1.5 0 0 1 3 0z"/>
    </symbol>

    <symbol id="pen" viewBox="0 0 16 16">
        <path fill-rule="evenodd"
              d="M13.498.795l.149-.149a1.207 1.207 0 1 1 1.707 1.708l-.149.148a1.5 1.5 0 0 1-.059 2.059L4.854 14.854a.5.5 0 0 1-.233.131l-4 1a.5.5 0 0 1-.606-.606l1-4a.5.5 0 0 1 .131-.232l9.642-9.642a.5.5 0 0 0-.642.056L6.854 4.854a.5.5 0 1 1-.708-.708L9.44.854A1.5 1.5 0 0 1 11.5.796a1.5 1.5 0 0 1 1.998-.001zm-.644.766a.5.5 0 0 0-.707 0L1.95 11.756l-.764 3.057 3.057-.764L14.44 3.854a.5.5 0 0 0 0-.708l-1.585-1.585z"/>
    </symbol>


    <symbol id="arrow-up" viewBox="0 0 16 16">
        <path fill-rule="evenodd"
              d="M8 12a.5.5 0 0 0 .5-.5V5.707l2.146 2.147a.5.5 0 0 0 .708-.708l-3-3a.5.5 0 0 0-.708 0l-3 3a.5.5 0 1 0 .708.708L7.5 5.707V11.5a.5.5 0 0 0 .5.5z"/>
    </symbol>

    <symbol id="arrow-down" viewBox="0 0 16 16">
        <path fill-rule="evenodd"
              d="M8 4a.5.5 0 0 1 .5.5v5.793l2.146-2.147a.5.5 0 0 1 .708.708l-3 3a.5.5 0 0 1-.708 0l-3-3a.5.5 0 1 1 .708-.708L7.5 10.293V4.5A.5.5 0 0 1 8 4z"/>
    </symbol>
</svg>