<svg xmlns="http://www.w3.org/2000/svg" style="display: none">

    <symbol id="add_log_ic" viewBox="0 0 24 24">
        <path d="M14 2H6c-1.1 0-1.99.9-1.99 2L4 20c0 1.1.89 2 1.99 2H18c1.1 0 2-.9 2-2V8l-6-6zm2 14h-3v3h-2v-3H8v-2h3v-3h2v3h3v2zm-3-7V3.5L18.5 9H13z"/>
    </symbol>

    <symbol id="edit_ic" viewBox="0 0 16 16">
        <path d="M15.502 1.94a.5.5 0 0 1 0 .706L14.459 3.69l-2-2L13.502.646a.5.5 0 0 1 .707 0l1.293 1.293zm-1.75 2.456l-2-2L4.939 9.21a.5.5 0 0 0-.121.196l-.805 2.414a.25.25 0 0 0 .316.316l2.414-.805a.5.5 0 0 0 .196-.12l6.813-6.814z"/>
        <path fill-rule="evenodd"
              d="M1 13.5A1.5 1.5 0 0 0 2.5 15h11a1.5 1.5 0 0 0 1.5-1.5v-6a.5.5 0 0 0-1 0v6a.5.5 0 0 1-.5.5h-11a.5.5 0 0 1-.5-.5v-11a.5.5 0 0 1 .5-.5H9a.5.5 0 0 0 0-1H2.5A1.5 1.5 0 0 0 1 2.5v11z"/>
    </symbol>

    <symbol id="info_ic" viewBox="0 0 16 16">
        <path d="M8.93 6.588l-2.29.287-.082.38.45.083c.294.07.352.176.288.469l-.738 3.468c-.194.897.105 1.319.808 1.319.545 0 1.178-.252 1.465-.598l.088-.416c-.2.176-.492.246-.686.246-.275 0-.375-.193-.304-.533L8.93 6.588z"/>
        <circle cx="8" cy="4.5" r="1"/>
    </symbol>

    <symbol id="more_ic" viewBox="0 0 16 16">
          <path fill-rule="evenodd" d="M3 9.5a1.5 1.5 0 1 1 0-3 1.5 1.5 0 0 1 0 3zm5 0a1.5 1.5 0 1 1 0-3 1.5 1.5 0 0 1 0 3zm5 0a1.5 1.5 0 1 1 0-3 1.5 1.5 0 0 1 0 3z"/>
    </symbol>
</svg>